<svg version="1.1" xmlns="http://www.w3.org/2000/svg" style="display: block;" viewBox="0 0 580 2048" width="544" height="1920" preserveAspectRatio="none">
<path transform="translate(0,0)" fill="rgb(246,248,253)" d="M 0 0 L 226.145 0 L 342.249 0 L 580 0 L 580 2048 L 0 2048 L 0 0 z"/>
<path transform="translate(0,0)" fill="rgb(139,141,141)" d="M 271.235 22.4677 C 286.033 22.1526 303.192 20.0783 315.954 26.8693 L 316.093 2015.74 L 295.125 2015.93 L 295.115 310.866 L 274.93 310.883 L 273.563 311.487 C 271.754 316.661 272.838 386.637 272.835 398.504 L 272.839 667.573 L 272.929 2015.87 L 252.033 2015.8 C 253.507 1960.73 252.439 1903.12 252.459 1847.72 L 252.334 1512.37 L 252.506 462.077 L 252.439 165.388 L 252.586 79.1378 C 252.547 63.2734 251.918 46.8719 252.342 31.123 C 256.474 28.5083 266.599 23.8583 271.235 22.4677 z"/>
<path transform="translate(0,0)" fill="rgb(246,248,253)" d="M 273.054 39.5694 L 295.038 39.4891 L 295.038 288.661 C 288.255 288.447 279.894 288.759 272.992 288.839 L 273.054 39.5694 z"/>
<path transform="translate(0,0)" fill="rgb(139,141,141)" d="M 29.9106 144.189 C 31.8893 146.352 31.1198 307.951 31.1216 328.104 L 31.141 666.543 L 31.2201 1896.23 C 25.7186 1896.04 16.1633 1897.76 11.6062 1895.58 C 11.1139 1895.35 10.927 1893.07 10.7907 1892.25 C 9.83403 1846.86 10.6043 1798.37 10.6236 1752.82 L 10.4874 1527.4 L 10.5192 911.749 L 10.5819 410.834 L 10.5735 249.748 C 10.5384 218.96 9.78895 184.707 10.8548 154.155 C 18.2096 150.738 23.0422 148.437 29.9106 144.189 z"/>
<path transform="translate(0,0)" fill="rgb(139,141,141)" d="M 537.195 140.309 C 541.66 141.324 552.686 147.54 557.5 150.018 C 558.568 180.754 557.628 218.798 557.65 249.995 L 557.723 449.504 L 557.712 1040.8 L 557.67 1614.44 L 557.681 1810.59 C 557.606 1838.18 558.532 1868.55 557.518 1895.86 C 551.249 1895.61 543.434 1895.89 537.029 1895.98 L 537.195 140.309 z"/>
</svg>