<svg xmlns="http://www.w3.org/2000/svg" xmlns:xlink="http://www.w3.org/1999/xlink" viewBox="257.6 918.4000000000001 2318.4 884.8" id="svg1" version="1.1" style="max-height: 500px" width="2318.4" height="884.8">
  <defs id="defs1">
    
    <clipPath id="clipPath2" clipPathUnits="userSpaceOnUse">
      <path id="path2" transform="translate(-1496.2368,-852.87812)" d="M 0,2100 H 2100 V 0 H 0 Z"/>
    </clipPath>
    <clipPath id="clipPath4" clipPathUnits="userSpaceOnUse">
      <path id="path4" transform="translate(-1555.5472,-848.07835)" d="M 0,2100 H 2100 V 0 H 0 Z"/>
    </clipPath>
    <clipPath id="clipPath6" clipPathUnits="userSpaceOnUse">
      <path id="path6" transform="translate(-1629.4515,-865.74925)" d="M 0,2100 H 2100 V 0 H 0 Z"/>
    </clipPath>
    <clipPath id="clipPath8" clipPathUnits="userSpaceOnUse">
      <path id="path8" transform="translate(-1712.6439,-853.30292)" d="M 0,2100 H 2100 V 0 H 0 Z"/>
    </clipPath>
    <clipPath id="clipPath10" clipPathUnits="userSpaceOnUse">
      <path id="path10" transform="translate(-1788.973,-881.85962)" d="M 0,2100 H 2100 V 0 H 0 Z"/>
    </clipPath>
    <clipPath id="clipPath12" clipPathUnits="userSpaceOnUse">
      <path id="path12" transform="translate(-1522.3833,-967.7473)" d="M 0,2100 H 2100 V 0 H 0 Z"/>
    </clipPath>
    <clipPath id="clipPath14" clipPathUnits="userSpaceOnUse">
      <path id="path14" transform="translate(-1673.6184,-1218.0597)" d="M 0,2100 H 2100 V 0 H 0 Z"/>
    </clipPath>
    <clipPath id="clipPath16" clipPathUnits="userSpaceOnUse">
      <path id="path16" transform="translate(-974.4973,-1181.4207)" d="M 0,2100 H 2100 V 0 H 0 Z"/>
    </clipPath>
    <clipPath id="clipPath18" clipPathUnits="userSpaceOnUse">
      <path id="path18" transform="translate(-335.08071,-887.18102)" d="M 0,2100 H 2100 V 0 H 0 Z"/>
    </clipPath>
    <clipPath id="clipPath20" clipPathUnits="userSpaceOnUse">
      <path id="path20" transform="translate(-305.70331,-1270.5457)" d="M 0,2100 H 2100 V 0 H 0 Z"/>
    </clipPath>
    <clipPath id="clipPath22" clipPathUnits="userSpaceOnUse">
      <path id="path22" transform="translate(-284.91181,-1244.646)" d="M 0,2100 H 2100 V 0 H 0 Z"/>
    </clipPath>
    <clipPath id="clipPath24" clipPathUnits="userSpaceOnUse">
      <path id="path24" transform="translate(-317.98611,-1289.7231)" d="M 0,2100 H 2100 V 0 H 0 Z"/>
    </clipPath>
    <clipPath id="clipPath26" clipPathUnits="userSpaceOnUse">
      <path id="path26" transform="translate(-1193.9623,-993.0991)" d="M 0,2100 H 2100 V 0 H 0 Z"/>
    </clipPath>
    <clipPath id="clipPath28" clipPathUnits="userSpaceOnUse">
      <path id="path28" transform="translate(-1373.3502,-1202.3235)" d="M 0,2100 H 2100 V 0 H 0 Z"/>
    </clipPath>
    <clipPath id="clipPath30" clipPathUnits="userSpaceOnUse">
      <path id="path30" transform="translate(-1345.8607,-1139.2317)" d="M 0,2100 H 2100 V 0 H 0 Z"/>
    </clipPath>
    <clipPath id="clipPath32" clipPathUnits="userSpaceOnUse">
      <path id="path32" transform="translate(-1355.4277,-878.92622)" d="M 0,2100 H 2100 V 0 H 0 Z"/>
    </clipPath>
    <clipPath id="clipPath34" clipPathUnits="userSpaceOnUse">
      <path id="path34" transform="translate(-1398.0979,-906.75692)" d="M 0,2100 H 2100 V 0 H 0 Z"/>
    </clipPath>
    <clipPath id="clipPath36" clipPathUnits="userSpaceOnUse">
      <path id="path36" transform="translate(-1296.7839,-882.2206)" d="M 0,2100 H 2100 V 0 H 0 Z"/>
    </clipPath>
  </defs>
  
    
  
  <g id="layer-MC0">
    <path clip-path="url(#clipPath2)" transform="matrix(1.3333333,0,0,-1.3333333,1994.9823,1662.8292)" style="fill:#142f54;fill-opacity:1;fill-rule:nonzero;stroke:none" d="m 0,0 -17.055,1.812 5.287,25.87 17.577,0.736 z m -31.142,-9.951 c -5.591,-0.235 -10.542,0.418 -14.848,1.952 -4.307,1.534 -7.867,3.813 -10.68,6.838 -2.814,3.022 -4.739,6.682 -5.776,10.979 -1.037,4.295 -1.019,9.056 0.05,14.283 1.068,5.225 3.011,10.068 5.837,14.526 2.827,4.457 6.309,8.344 10.455,11.659 4.141,3.315 8.751,5.937 13.832,7.865 5.081,1.929 10.483,3.015 16.21,3.254 6.523,0.274 12.163,-0.557 16.914,-2.495 4.752,-1.938 8.413,-4.862 10.978,-8.769 L -3.033,38.442 c -1.863,2.512 -4.051,4.331 -6.557,5.456 -2.51,1.125 -5.463,1.618 -8.857,1.475 -2.996,-0.126 -5.821,-0.697 -8.471,-1.715 -2.651,-1.017 -5.018,-2.429 -7.102,-4.232 -2.084,-1.804 -3.856,-3.935 -5.314,-6.392 -1.461,-2.458 -2.489,-5.155 -3.09,-8.096 -0.588,-2.875 -0.648,-5.501 -0.175,-7.876 0.471,-2.377 1.395,-4.395 2.771,-6.053 1.377,-1.659 3.183,-2.911 5.42,-3.756 2.236,-0.845 4.818,-1.206 7.75,-1.084 2.928,0.123 5.888,0.717 8.879,1.781 2.99,1.064 6.146,2.798 9.477,5.206 L 0,0 c -4.637,-2.979 -9.72,-5.33 -15.253,-7.051 -5.534,-1.72 -10.83,-2.688 -15.889,-2.9" id="path1"/>
    <path clip-path="url(#clipPath4)" transform="matrix(1.3333333,0,0,-1.3333333,2074.0629,1669.2289)" style="fill:#142f54;fill-opacity:1;fill-rule:nonzero;stroke:none" d="M 0,0 -12.27,24.259 8.803,25.143 21.17,0.888 Z m -18.42,23.225 -7.047,8.642 19.774,0.829 c 4.125,0.173 7.403,1.184 9.828,3.034 2.423,1.85 3.963,4.375 4.618,7.578 0.627,3.069 0.091,5.46 -1.605,7.17 -1.697,1.71 -4.611,2.479 -8.736,2.306 l -19.773,-0.829 10.712,9.289 z m -24.721,-25.033 14.02,68.593 31.156,1.306 c 10.252,0.43 17.649,-1.495 22.184,-5.774 4.538,-4.278 6.007,-10.338 4.405,-18.176 C 27.542,38.849 25.373,34.289 22.113,30.46 18.858,26.632 14.694,23.624 9.627,21.437 4.56,19.247 -1.167,18.021 -7.558,17.753 l -20.972,-0.879 10.57,8.604 -5.407,-26.457 z" id="path3"/>
    <path clip-path="url(#clipPath6)" transform="matrix(1.3333333,0,0,-1.3333333,2172.602,1645.6677)" style="fill:#142f54;fill-opacity:1;fill-rule:nonzero;stroke:none" d="m 0,0 c 2.66,0.111 5.236,0.671 7.721,1.684 2.483,1.009 4.75,2.416 6.802,4.219 2.051,1.801 3.802,3.915 5.256,6.341 1.45,2.425 2.486,5.14 3.1,8.145 0.613,3.004 0.68,5.677 0.205,8.024 -0.48,2.342 -1.389,4.345 -2.732,6.005 -1.346,1.659 -3.072,2.898 -5.182,3.718 -2.109,0.817 -4.498,1.171 -7.158,1.059 -2.664,-0.112 -5.237,-0.673 -7.721,-1.683 -2.483,-1.011 -4.768,-2.419 -6.852,-4.222 -2.085,-1.804 -3.838,-3.919 -5.255,-6.341 -1.422,-2.426 -2.438,-5.138 -3.051,-8.142 -0.614,-3.006 -0.7,-5.681 -0.254,-8.026 0.442,-2.346 1.353,-4.348 2.732,-6.006 1.377,-1.66 3.12,-2.898 5.231,-3.715 C -5.049,0.24 -2.664,-0.112 0,0 m -3.284,-16.07 c -5.528,-0.233 -10.489,0.434 -14.887,1.998 -4.399,1.565 -8,3.891 -10.802,6.979 -2.8,3.089 -4.741,6.764 -5.814,11.027 -1.076,4.26 -1.088,8.971 -0.033,14.133 1.042,5.095 2.985,9.84 5.832,14.235 2.842,4.393 6.328,8.279 10.449,11.658 4.124,3.379 8.728,6.049 13.815,8.011 5.087,1.963 10.427,3.06 16.019,3.295 5.592,0.234 10.57,-0.431 14.938,-1.997 4.367,-1.566 7.953,-3.877 10.759,-6.932 2.809,-3.057 4.752,-6.699 5.836,-10.929 1.084,-4.228 1.098,-8.924 0.043,-14.084 C 41.803,16.098 39.86,11.271 37.041,6.848 34.221,2.421 30.739,-1.466 26.59,-4.812 22.441,-8.16 17.822,-10.813 12.735,-12.776 7.646,-14.738 2.308,-15.836 -3.284,-16.07" id="path5"/>
    <path clip-path="url(#clipPath8)" transform="matrix(1.3333333,0,0,-1.3333333,2283.5252,1662.2628)" style="fill:#142f54;fill-opacity:1;fill-rule:nonzero;stroke:none" d="m 0,0 c -10.32,-0.433 -17.792,2.006 -22.413,7.318 -4.627,5.311 -5.903,13.029 -3.834,23.156 l 7.791,38.119 19.775,0.828 -7.671,-37.53 c -1.188,-5.816 -0.88,-9.947 0.931,-12.397 1.808,-2.449 4.775,-3.588 8.904,-3.415 4.127,0.173 7.601,1.582 10.418,4.226 2.818,2.643 4.821,6.871 6.009,12.686 l 7.671,37.53 19.572,0.822 -7.791,-38.118 C 37.293,23.098 32.776,15.136 25.817,9.341 18.856,3.542 10.25,0.43 0,0" id="path7"/>
    <path clip-path="url(#clipPath10)" transform="matrix(1.3333333,0,0,-1.3333333,2385.2973,1624.1872)" style="fill:#142f54;fill-opacity:1;fill-rule:nonzero;stroke:none" d="m 0,0 -7.026,8.74 19.773,0.829 c 4.125,0.173 7.398,1.166 9.817,2.986 2.416,1.816 3.952,4.326 4.607,7.528 0.627,3.069 0.093,5.46 -1.603,7.17 -1.699,1.711 -4.611,2.479 -8.736,2.307 L -2.941,28.73 7.771,38.02 Z m -24.721,-25.032 14.02,68.592 31.855,1.336 c 6.391,0.267 11.709,-0.515 15.955,-2.344 4.246,-1.83 7.227,-4.603 8.942,-8.32 1.717,-3.717 2.045,-8.157 0.991,-13.316 C 45.96,15.624 43.789,11.047 40.523,7.187 37.26,3.325 33.088,0.269 28.007,-1.984 22.926,-4.237 17.19,-5.498 10.8,-5.766 L -10.171,-6.645 0.46,2.253 -4.947,-24.204 Z" id="path9"/>
    <path clip-path="url(#clipPath12)" transform="matrix(1.3333333,0,0,-1.3333333,2029.8444,1509.6703)" style="fill:#142f54;fill-opacity:1;fill-rule:nonzero;stroke:none" d="m 0,0 67.524,3.539 51.522,245.086 -67.524,-3.538 z" id="path11"/>
    <path clip-path="url(#clipPath14)" transform="matrix(1.3333333,0,0,-1.3333333,2231.4911,1175.9204)" style="fill:#142f54;fill-opacity:1;fill-rule:nonzero;stroke:none" d="m 0,0 -13.105,-62.337 61.751,3.236 -38.417,-182.749 67.524,3.538 38.417,182.749 61.754,3.237 13.101,62.337 z" id="path13"/>
    <path clip-path="url(#clipPath16)" transform="matrix(1.3333333,0,0,-1.3333333,1299.3297,1224.7724)" style="fill:#142f54;fill-opacity:1;fill-rule:nonzero;stroke:none" d="m 0,0 -61.18,-3.206 -126.985,-210.762 16.344,-36.446 33.93,1.778 35.135,59.597 37.083,63.595 18.916,32.441 7.065,-31.079 13.781,-60.929 13.135,-58.046 70.749,3.708 z" id="path15"/>
    <path clip-path="url(#clipPath18)" transform="matrix(1.3333333,0,0,-1.3333333,446.77427,1617.092)" style="fill:#142f54;fill-opacity:1;fill-rule:nonzero;stroke:none" d="m 0,0 96.094,5.036 80.268,320.509 -96.094,-5.036 z" id="path17"/>
    <path clip-path="url(#clipPath20)" transform="matrix(1.3333333,0,0,-1.3333333,407.6044,1105.9391)" style="fill:#142f54;fill-opacity:1;fill-rule:nonzero;stroke:none" d="m 0,0 4.591,18.774 -21.72,-1.138 -4.557,-18.772 z" id="path19"/>
    <path clip-path="url(#clipPath22)" transform="matrix(1.3333333,0,0,-1.3333333,379.8824,1140.4721)" style="fill:#142f54;fill-opacity:1;fill-rule:nonzero;stroke:none" d="M 0,0 3.934,16.085 -8.335,15.443 -12.239,-0.641 Z" id="path21"/>
    <path clip-path="url(#clipPath24)" transform="matrix(1.3333333,0,0,-1.3333333,423.98147,1080.3693)" style="fill:#142f54;fill-opacity:1;fill-rule:nonzero;stroke:none" d="m 0,0 -4.592,-18.774 101.928,5.342 v -8.931 l -118.784,-6.226 -3.934,-16.085 92.907,4.869 v -8.933 l -115.034,-6.029 -35.121,-1.841 v -22.194 l 29.664,1.554 -0.01,-0.039 135.673,7.111 17.87,0.936 96.094,5.036 22.998,1.205 102.649,5.38 18.319,75.47 z" id="path23"/>
    <path clip-path="url(#clipPath26)" transform="matrix(1.3333333,0,0,-1.3333333,1591.9497,1475.8679)" style="fill:#142f54;fill-opacity:1;fill-rule:nonzero;stroke:none" d="m 0,0 -44.974,88.125 -28.281,-134.528 -66.016,-3.46 51.521,245.087 59.106,3.098 66.787,-126.952 27.732,131.905 66.016,3.46 -51.521,-245.087 -59.213,-3.103 -6.844,13.409 z" id="path25"/>
    <path clip-path="url(#clipPath28)" transform="matrix(1.3333333,0,0,-1.3333333,1831.1336,1196.902)" style="fill:#142f54;fill-opacity:1;fill-rule:nonzero;stroke:none" d="m 0,0 -14.388,-0.754 -3.858,-18.356 13.749,0.721 z" id="path27"/>
    <path clip-path="url(#clipPath30)" transform="matrix(1.3333333,0,0,-1.3333333,1794.4809,1281.0245)" style="fill:#142f54;fill-opacity:1;fill-rule:nonzero;stroke:none" d="m 0,0 99.925,5.237 -129.67,-132.555 -11.687,-55.589 187.262,9.814 13.105,62.334 -98.756,-5.176 125.515,132.46 11.657,55.469 L 34.054,63.436 29.556,45.047 77.96,47.583 V 39.962 L 0.071,35.88 -2.809,22.178 56.647,25.294 V 17.671 L 3.124,14.866 4.724,14.95 1.866,0.098" id="path29"/>
    <path clip-path="url(#clipPath32)" transform="matrix(1.3333333,0,0,-1.3333333,1807.2369,1628.0984)" style="fill:#e89323;fill-opacity:1;fill-rule:nonzero;stroke:none" d="m 0,0 v -17.329 l 48.346,3.213 3.675,17.41 z" id="path31"/>
    <path clip-path="url(#clipPath34)" transform="matrix(1.3333333,0,0,-1.3333333,1864.1305,1590.9908)" style="fill:#e89323;fill-opacity:1;fill-rule:nonzero;stroke:none" d="m 0,0 -20.679,-0.783 -3.141,-18.198 20.146,1.57 z" id="path33"/>
    <path clip-path="url(#clipPath36)" transform="matrix(1.3333333,0,0,-1.3333333,1729.0451,1623.7059)" style="fill:#e89323;fill-opacity:1;fill-rule:nonzero;stroke:none" d="m 0,0 69.26,4.907 3.978,18.847 -601.555,-39.358 -55.298,127.435 c 16.556,8.442 30.651,19.37 42.277,32.783 13.315,15.362 22.43,33.301 27.348,53.819 7.407,30.903 2.752,54.757 -13.961,71.575 -16.717,16.816 -45.226,24.103 -85.523,21.866 l -75.657,-4.278 7.304,32.357 c 0,0.003 -0.002,0.003 -0.002,0.003 l -94.505,-60.196 64.868,-71.1 6.74,29.856 40.511,2.311 11.39,0.632 9.751,0.542 3.905,16.29 c 0.06,0.254 0.191,0.478 0.274,0.724 l 3.348,13.641 9.166,-7.417 c 0.128,-0.084 0.278,-0.119 0.399,-0.217 l 17.208,-14.026 45.08,-36.466 -50.596,-32.423 -37.577,-25.076 c -1.362,-0.91 -2.731,-1.399 -4.018,-1.576 l -9.437,-6.049 7.276,30.281 -9.715,-0.539 -11.39,-0.632 -88.609,-4.92 -32.238,-136.148 88.609,4.643 16.028,68.797 24.137,1.34 78.208,-182.023 28.014,1.555 v -0.03 l 615.455,39.2 0.088,20.322 -68.518,-4.022 v 7.332 l 70.337,4.413 V -3.662 L 0,-7.332 Z" id="path35"/>
  </g>
</svg>